<svg xmlns="http://www.w3.org/2000/svg" width="61" height="74" viewBox="0 0 61 74">
    <g fill="none" fill-rule="evenodd">
        <g stroke="#434343" stroke-width="3" transform="translate(2 2)">
            <path fill="#00E0A9" d="M28.5 70S57 44.143 57 28.437C57 12.732 44.24 0 28.5 0S0 12.732 0 28.438C0 44.142 28.5 70 28.5 70z"/>
            <circle cx="28.5" cy="27.5" r="18.5" fill="#4A4A4A"/>
        </g>
        <path fill="#FFF" fill-rule="nonzero" d="M30.49 19c-4.664 0-8.48.526-8.48 4.206v9.99c0 1.998 1.696 3.68 3.71 3.68l-1.59 1.578v.525H36.85v-.525l-1.59-1.578c2.014 0 3.71-1.682 3.71-3.68v-9.99c0-3.68-3.816-4.206-8.48-4.206zm-4.77 15.773c-.848 0-1.59-.736-1.59-1.577s.742-1.577 1.59-1.577c.848 0 1.59.736 1.59 1.577s-.742 1.577-1.59 1.577zm3.71-6.31h-5.3v-5.257h5.3v5.258zm5.83 6.31c-.849 0-1.59-.736-1.59-1.577s.741-1.577 1.59-1.577c.847 0 1.589.736 1.589 1.577s-.742 1.577-1.59 1.577zm1.589-6.31h-5.3v-5.257h5.3v5.258z"/>
    </g>
</svg>
