<svg xmlns="http://www.w3.org/2000/svg" width="17" height="20" viewBox="0 0 17 20">
    <path fill="#FD3131" fill-rule="nonzero" d="M8.49 0C3.826 0 .01.526.01 4.206v9.99c0 1.998 1.696 3.68 3.71 3.68l-1.59 1.578v.525H14.85v-.525l-1.59-1.578c2.014 0 3.71-1.682 3.71-3.68v-9.99C16.969.526 13.153 0 8.489 0zM3.72 15.773c-.848 0-1.59-.736-1.59-1.577s.742-1.577 1.59-1.577c.848 0 1.59.736 1.59 1.577s-.742 1.577-1.59 1.577zm3.71-6.31h-5.3V4.207h5.3v5.258zm5.83 6.31c-.849 0-1.59-.736-1.59-1.577s.741-1.577 1.59-1.577c.847 0 1.589.736 1.589 1.577s-.742 1.577-1.59 1.577zm1.589-6.31h-5.3V4.207h5.3v5.258z"/>
</svg>
