<svg xmlns="http://www.w3.org/2000/svg" width="24" height="25" viewBox="0 0 24 25">
    <path fill="#3573FF" fill-rule="evenodd" stroke="#3573FF" stroke-width="1.333" d="M20.733 12.892c-.069-.114-.246-.114-.303 0l-1.795 3.092a.188.188 0 0 0 .166.28h.817v.668a3.534 3.534 0 0 1-3.543 3.537h-3.2V7.22h5.258c.108 0 .188-.075.188-.184v-.908a.187.187 0 0 0-.188-.189h-5.258V4.681a2.115 2.115 0 0 0 1.126-1.852A2.096 2.096 0 0 0 11.904.744c-.12 0-.246.051-.354.074-.035 0-.069-.029-.103-.017-.069.011-.137.051-.189.074-.103.023-.188.069-.291.12-.154.074-.269.16-.4.269-.057.057-.137.103-.194.165-.12.138-.212.292-.298.446-.034.069-.08.126-.114.194-.08.235-.131.492-.131.76 0 .23.034.44.097.64a.726.726 0 0 0 .103.212c.045.12.097.246.177.343.057.074.114.137.166.205.091.098.182.178.28.252.08.051.137.108.211.148.023.012.046.04.069.052v1.257H5.91c-.097 0-.177.086-.177.189v.908c0 .109.08.183.177.183H10.933V20.47H7.64a3.526 3.526 0 0 1-3.526-3.537v-.668h.812c.148 0 .234-.149.171-.28l-1.8-3.092a.187.187 0 0 0-.314 0l-1.783 3.092c-.068.131.012.28.154.28h.795l.034.668a5.465 5.465 0 0 0 5.457 5.463h3.223l.84 1.446a.183.183 0 0 0 .32 0l.829-1.446h3.222a5.464 5.464 0 0 0 5.469-5.463v-.668h.817c.154 0 .234-.149.166-.28l-1.794-3.092z"/>
</svg>
