<svg xmlns="http://www.w3.org/2000/svg" width="40" height="27" viewBox="0 0 40 27">
    <path fill="#0040FF" fill-rule="evenodd" d="M39.275 9.347c-.784.482-3.219 1.007-4.563.507a16.61 16.61 0 0 0-.212-.887c-1.024-3.762-4.532-6.792-8.207-6.426.297-.12.599-.232.9-.333.404-.144 2.778-.53 2.404-1.368-.315-.737-3.215.556-3.761.726.72-.271 1.913-.738 2.04-1.566-1.104.151-2.188.674-3.025 1.433.302-.326.531-.723.58-1.15-2.945 1.882-4.666 5.675-6.058 9.355-1.093-1.06-2.062-1.894-2.931-2.357-2.44-1.308-5.355-2.672-9.932-4.371-.14 1.514.749 3.528 3.312 4.867-.555-.075-1.57.091-2.383.286.33 1.735 1.41 3.164 4.335 3.855-1.336.088-2.027.392-2.653 1.048.609 1.206 2.094 2.626 4.766 2.335-2.97 1.28-1.211 3.651 1.206 3.298-4.124 4.259-10.625 3.945-14.358.383 9.747 13.281 30.934 7.855 34.091-4.937 2.366.02 3.756-.82 4.619-1.745-1.363.23-3.339-.008-4.386-.444 2.174-.18 3.649-1.168 4.216-2.51z"/>
</svg>
