<svg xmlns="http://www.w3.org/2000/svg" width="32" height="27" viewBox="0 0 32 27">
    <path fill="#0040FF" fill-rule="evenodd" d="M26.852.006c-4.264-.14-7.149 2.252-8.66 7.177.778-.32 1.534-.482 2.272-.482 1.554 0 2.243.873 2.059 2.622-.091 1.06-.778 2.601-2.06 4.625-1.285 2.026-2.246 3.038-2.884 3.038-.829 0-1.583-1.566-2.272-4.693-.23-.921-.644-3.267-1.235-7.042C13.518 1.754 12.052.12 9.67.349 8.663.442 7.154 1.365 5.139 3.111A400.499 400.499 0 0 1 .667 7.116l1.442 1.861C3.485 8.011 4.29 7.53 4.514 7.53c1.055 0 2.04 1.656 2.958 4.967.822 3.04 1.651 6.077 2.477 9.113 1.23 3.313 2.747 4.97 4.532 4.97 2.885 0 6.419-2.714 10.586-8.144 4.03-5.199 6.112-9.295 6.252-12.288.185-4.002-1.304-6.05-4.467-6.141z"/>
</svg>
